{"title":"The.Search.for.Freedom.2015.BDRip.x264-MenaceIISociety","uid":12481804,"size":1127215523,"categoryP":"video","categoryS":"movies","magnet":"?xt=urn:btih:476ba94105553cdf2a6e4f07b8b53cdcec11cd13&amp;dn=The.Search.for.Freedom.2015.BDRip.x264-MenaceIISociety&amp;tr=udp%3A%2F%2Ftracker.leechers-paradise.org%3A6969&amp;tr=udp%3A%2F%2Fzer0day.ch%3A1337&amp;tr=udp%3A%2F%2Fopen.demonii.com%3A1337&amp;tr=udp%3A%2F%2Ftracker.coppersurfer.tk%3A6969&amp;tr=udp%3A%2F%2Fexodus.desync.com%3A6969","seeders":0,"leechers":0,"uploader":"TvTeam","files":4,"time":1443058899,"description":"------------------------------------------------------------------------\r\n\r  https://www.torrenting.com\r\n\r\nSign up is OPEN - for time being. Come and have fun.\r\n\r\n------------------------------------------------------------------------[center][img]http://s22.postimg.org/4pscolljl/folder.png[/img]\n\nThe.Search.for.Freedom.2015.BDRip.x264-MenaceIISociety \nhttp://www.imdb.com/title/tt4943594/\n\nSource: 1080p EUR Blu-ray AVC DTS-HD MA 5.1-DVDSEED [THANKS]\n\nGeneral\nComplete name                            : The.Search.for.Freedom.2015.BDRip.x264-MenaceIISociety.mp4\nFormat                                   : MPEG-4\nFormat profile                           : Base Media\nCodec ID                                 : isom\nFile size                                : 1.03 GiB\nDuration                                 : 1h 32mn\nOverall bit rate mode                    : Variable\nOverall bit rate                         : 1 597 Kbps\nEncoded date                             : UTC 2015-09-14 04:15:46\nTagged date                              : UTC 2015-09-14 04:15:46\n\nVideo\nID                                       : 1\nFormat                                   : AVC\nFormat/Info                              : Advanced Video Codec\nFormat profile                           :   \nFormat settings, CABAC                   : Yes\nFormat settings, ReFrames                : 3 frames\nCodec ID                                 : avc1\nCodec ID/Info                            : Advanced Video Coding\nDuration                                 : 1h 32mn\nBit rate mode                            : Variable\nBit rate                                 : 1 280 Kbps\nMaximum bit rate                         : 40.0 Mbps\nWidth                                    : 720 pixels\nHeight                                   : 400 pixels\nDisplay aspect ratio                     : 16:9\nFrame rate mode                          : Constant\nFrame rate                               : 23.976 fps\nColor space                              : YUV\nChroma subsampling                       : 4:2:0\nBit depth                                : 8 bits\nScan type                                : Progressive\nBits/(Pixel*Frame)                       : 0.185\nStream size                              : 844 MiB (80%)\nWriting library                          : x264 core 148 r2597 e86f3a1\n\nAudio\nID                                       : 2\nFormat                                   : AAC\nFormat/Info                              : Advanced Audio Codec\nFormat profile                           : LC\nCodec ID                                 : 40\nDuration                                 : 1h 32mn\nBit rate mode                            : Variable\nBit rate                                 : 313 Kbps\nMaximum bit rate                         : 376 Kbps\nChannel(s)                               : 6 channels\nChannel positions                        : Front: L C R, Side: L R, LFE\nSampling rate                            : 48.0 KHz\nCompression mode                         : Lossy\nStream size                              : 206 MiB (20%)\nLanguage                                 : English\nEncoded date                             : UTC 2015-09-14 03:27:56\nTagged date                              : UTC 2015-09-14 04:17:54 \n\n[img]http://s24.postimg.org/xpee4sdqd/vlcsnap_2015_09_14_05h20m52s777.png[/img]\n[img]http://s24.postimg.org/vyvd3aw79/vlcsnap_2015_09_14_05h21m23s080.png[/img]\n[img]http://s24.postimg.org/hi83oq6px/vlcsnap_2015_09_14_05h22m24s611.png[/img]\n[img]http://s24.postimg.org/bsrv4f0jp/vlcsnap_2015_09_14_05h22m36s567.png[/img] \n \n[img]http://s17.postimg.org/r1iiyw8yn/Untitled_1.png[/img][/center]","torrent":{"xt":"urn:btih:476ba94105553cdf2a6e4f07b8b53cdcec11cd13","amp;dn":"The.Search.for.Freedom.2015.BDRip.x264-MenaceIISociety","amp;tr":["udp%3A%2F%2Ftracker.leechers-paradise.org%3A6969","udp%3A%2F%2Fzer0day.ch%3A1337","udp%3A%2F%2Fopen.demonii.com%3A1337","udp%3A%2F%2Ftracker.coppersurfer.tk%3A6969","udp%3A%2F%2Fexodus.desync.com%3A6969"],"infoHash":"476ba94105553cdf2a6e4f07b8b53cdcec11cd13","infoHashBuffer":{"type":"Buffer","data":[71,107,169,65,5,85,60,223,42,110,79,7,184,181,60,220,236,17,205,19]},"announce":[],"urlList":[]}}